# xmcd
#
# Track frame offsets: 
#        150
#        8975
#        20062
#        30550
#        42925
#        54512
#        66712
#        79187
#        88637
#        99600
#        110237
#        119312
#
# Disc length: 1763 seconds
#
# Revision: 0
# Processed by: cddbd v1.5.2PL0 Copyright (c) Steve Scherf et al.
# Submitted via: ExactAudioCopy v0.95a5
#
DISCID=a406e10c
DTITLE=李宝莹 文千岁 - 大家恭喜
DYEAR=1991
DGENRE=Pop
TTITLE0=恭喜你
TTITLE1=如意吉祥
TTITLE2=吉庆满堂
TTITLE3=春宵
TTITLE4=美丽的都市
TTITLE5=歌颂好春天
TTITLE6=大家恭喜
TTITLE7=花开富贵
TTITLE8=祝福
TTITLE9=可爱的紫荆花
TTITLE10=鲜花送玉人
TTITLE11=郎情妾意
EXTD=
EXTT0=
EXTT1=
EXTT2=
EXTT3=
EXTT4=
EXTT5=
EXTT6=
EXTT7=
EXTT8=
EXTT9=
EXTT10=
EXTT11=
PLAYORDER=
